<?xml version="1.0" standalone="no"?>
<!DOCTYPE svg PUBLIC "-//W3C//DTD SVG 20010904//EN"
 "http://www.w3.org/TR/2001/REC-SVG-20010904/DTD/svg10.dtd">
<svg version="1.0" xmlns="http://www.w3.org/2000/svg"
 width="1280.000000pt" height="1195.000000pt" viewBox="0 0 1280.000000 1195.000000"
 preserveAspectRatio="xMidYMid meet">
<metadata>
Created by potrace 1.15, written by Peter Selinger 2001-2017
</metadata>
<g transform="translate(0.000000,1195.000000) scale(0.100000,-0.100000)"
fill="#000000" stroke="none">
<path d="M6020 11939 c-383 -42 -666 -116 -999 -261 -530 -232 -1018 -623
-1378 -1103 -483 -646 -771 -1437 -834 -2299 -14 -189 -6 -654 15 -831 67
-566 228 -1101 472 -1563 36 -68 64 -125 62 -126 -2 -2 -68 -40 -148 -86 -770
-439 -1468 -1064 -1990 -1780 -566 -776 -942 -1655 -1115 -2600 -63 -348 -98
-696 -98 -985 -1 -215 9 -253 70 -288 31 -18 90 -18 1890 -6 1022 6 3856 15
6298 18 4216 6 4442 7 4468 24 61 39 62 47 62 442 -1 350 -8 481 -41 750 -242
1959 -1468 3638 -3324 4552 l-177 87 63 130 c224 468 357 951 416 1516 19 186
16 705 -6 895 -88 768 -322 1420 -723 2010 -261 384 -630 747 -1004 987 -427
274 -866 438 -1349 503 -138 19 -512 27 -630 14z"/>
</g>
</svg>
