<svg width="202" height="23" viewBox="0 0 202 23" fill="none" xmlns="http://www.w3.org/2000/svg">
<path d="M17.7793 19.3047C16.9883 20.252 15.8701 20.9893 14.4248 21.5166C12.9795 22.0342 11.3779 22.293 9.62012 22.293C7.77441 22.293 6.15332 21.8926 4.75684 21.0918C3.37012 20.2812 2.2959 19.1094 1.53418 17.5762C0.782227 16.043 0.396484 14.2412 0.376953 12.1709V10.7207C0.376953 8.5918 0.733398 6.75098 1.44629 5.19824C2.16895 3.63574 3.2041 2.44434 4.55176 1.62402C5.90918 0.793945 7.49609 0.378906 9.3125 0.378906C11.8418 0.378906 13.8193 0.984375 15.2451 2.19531C16.6709 3.39648 17.5156 5.14941 17.7793 7.4541H13.502C13.3066 6.2334 12.8721 5.33984 12.1982 4.77344C11.5342 4.20703 10.6162 3.92383 9.44434 3.92383C7.9502 3.92383 6.8125 4.48535 6.03125 5.6084C5.25 6.73145 4.85449 8.40137 4.84473 10.6182V11.9805C4.84473 14.2168 5.26953 15.9062 6.11914 17.0488C6.96875 18.1914 8.21387 18.7627 9.85449 18.7627C11.5049 18.7627 12.6816 18.4111 13.3848 17.708V14.0312H9.38574V10.7939H17.7793V19.3047ZM38.249 14.1924H34.748V22H30.3535V0.671875H38.2783C40.7979 0.671875 42.7412 1.2334 44.1084 2.35645C45.4756 3.47949 46.1592 5.06641 46.1592 7.11719C46.1592 8.57227 45.8418 9.78809 45.207 10.7646C44.582 11.7314 43.6299 12.5029 42.3506 13.0791L46.9648 21.7949V22H42.248L38.249 14.1924ZM34.748 10.6328H38.293C39.3965 10.6328 40.251 10.3545 40.8564 9.79785C41.4619 9.23145 41.7646 8.45508 41.7646 7.46875C41.7646 6.46289 41.4766 5.67187 40.9004 5.0957C40.334 4.51953 39.46 4.23145 38.2783 4.23145H34.748V10.6328ZM76.0332 11.8193C76.0332 13.9189 75.6621 15.7598 74.9199 17.3418C74.1777 18.9238 73.1133 20.1445 71.7266 21.0039C70.3496 21.8633 68.7676 22.293 66.9805 22.293C65.2129 22.293 63.6357 21.8682 62.249 21.0186C60.8623 20.1689 59.7881 18.958 59.0264 17.3857C58.2646 15.8037 57.8789 13.9873 57.8691 11.9365V10.8818C57.8691 8.78223 58.2451 6.93652 58.9971 5.34473C59.7588 3.74316 60.8281 2.51758 62.2051 1.66797C63.5918 0.808594 65.1738 0.378906 66.9512 0.378906C68.7285 0.378906 70.3057 0.808594 71.6826 1.66797C73.0693 2.51758 74.1387 3.74316 74.8906 5.34473C75.6523 6.93652 76.0332 8.77734 76.0332 10.8672V11.8193ZM71.5801 10.8525C71.5801 8.61621 71.1797 6.91699 70.3789 5.75488C69.5781 4.59277 68.4355 4.01172 66.9512 4.01172C65.4766 4.01172 64.3389 4.58789 63.5381 5.74023C62.7373 6.88281 62.332 8.5625 62.3223 10.7793V11.8193C62.3223 13.9971 62.7227 15.6865 63.5234 16.8877C64.3242 18.0889 65.4766 18.6895 66.9805 18.6895C68.4551 18.6895 69.5879 18.1133 70.3789 16.9609C71.1699 15.7988 71.5703 14.1094 71.5801 11.8926V10.8525ZM104.369 0.671875V14.7197C104.369 17.0537 103.637 18.8994 102.172 20.2568C100.717 21.6143 98.7246 22.293 96.1953 22.293C93.7051 22.293 91.7275 21.6338 90.2627 20.3154C88.7979 18.9971 88.0508 17.1855 88.0215 14.8809V0.671875H92.416V14.749C92.416 16.1455 92.748 17.166 93.4121 17.8105C94.0859 18.4453 95.0137 18.7627 96.1953 18.7627C98.666 18.7627 99.9209 17.4639 99.96 14.8662V0.671875H104.369ZM121.367 14.4854V22H116.973V0.671875H125.293C126.895 0.671875 128.301 0.964844 129.512 1.55078C130.732 2.13672 131.67 2.97168 132.324 4.05566C132.979 5.12988 133.306 6.35547 133.306 7.73242C133.306 9.82227 132.588 11.4727 131.152 12.6836C129.727 13.8848 127.749 14.4854 125.22 14.4854H121.367ZM121.367 10.9258H125.293C126.455 10.9258 127.339 10.6523 127.944 10.1055C128.56 9.55859 128.867 8.77734 128.867 7.76172C128.867 6.7168 128.56 5.87207 127.944 5.22754C127.329 4.58301 126.479 4.25098 125.396 4.23145H121.367V10.9258ZM171.638 22H167.404V5.68164L162.351 7.24902V3.80664L171.184 0.642578H171.638V22ZM197.483 13.4746C196.38 14.5586 195.091 15.1006 193.616 15.1006C191.731 15.1006 190.223 14.4561 189.09 13.167C187.957 11.8682 187.391 10.1201 187.391 7.92285C187.391 6.52637 187.693 5.24707 188.299 4.08496C188.914 2.91309 189.769 2.00488 190.862 1.36035C191.956 0.706055 193.187 0.378906 194.554 0.378906C195.96 0.378906 197.21 0.730469 198.304 1.43359C199.397 2.13672 200.247 3.14746 200.853 4.46582C201.458 5.78418 201.766 7.29297 201.775 8.99219V10.5596C201.775 14.1143 200.892 16.9072 199.124 18.9385C197.356 20.9697 194.852 22.0537 191.609 22.1904L190.569 22.2051V18.6748L191.507 18.6602C195.188 18.4941 197.181 16.7656 197.483 13.4746ZM194.656 11.8633C195.34 11.8633 195.926 11.6875 196.414 11.3359C196.912 10.9844 197.288 10.5596 197.542 10.0615V8.31836C197.542 6.88281 197.269 5.76953 196.722 4.97852C196.175 4.1875 195.442 3.79199 194.524 3.79199C193.675 3.79199 192.977 4.18262 192.43 4.96387C191.883 5.73535 191.609 6.70703 191.609 7.87891C191.609 9.04102 191.873 9.99805 192.4 10.75C192.938 11.4922 193.689 11.8633 194.656 11.8633Z" fill="white"/>
</svg>
