<?xml version="1.0" standalone="no"?>
<!DOCTYPE svg PUBLIC "-//W3C//DTD SVG 20010904//EN"
 "http://www.w3.org/TR/2001/REC-SVG-20010904/DTD/svg10.dtd">
<svg version="1.0" xmlns="http://www.w3.org/2000/svg"
 width="512.000000pt" height="512.000000pt" viewBox="0 0 512.000000 512.000000"
 preserveAspectRatio="xMidYMid meet">

<g transform="translate(0.000000,512.000000) scale(0.100000,-0.100000)"
fill="#000000" stroke="none">
<path d="M3626 4889 c-456 -63 -851 -370 -1021 -793 -20 -48 -48 -133 -62
-189 -27 -102 -27 -103 -30 -564 l-4 -463 -1142 -2 -1142 -3 -40 -22 c-54 -28
-119 -100 -136 -149 -21 -58 -21 -2250 0 -2308 17 -49 82 -121 136 -149 l40
-22 1468 -3 c982 -1 1482 1 1507 8 64 17 130 70 164 130 l31 55 3 1113 c1 741
-1 1126 -8 1152 -18 67 -70 132 -130 165 -48 25 -68 30 -152 33 l-98 4 0 418
c0 477 3 501 84 665 98 197 264 337 481 405 100 31 264 38 376 16 267 -55 490
-242 585 -492 41 -108 53 -201 54 -404 0 -172 2 -188 24 -235 84 -181 331
-196 433 -26 20 34 34 74 39 109 10 84 -2 406 -20 502 -92 510 -483 914 -996
1031 -100 23 -340 33 -444 18z m360 -144 c508 -88 896 -496 954 -1005 16 -138
13 -395 -5 -430 -21 -40 -53 -60 -98 -60 -31 0 -46 7 -73 34 l-34 34 0 164 c0
208 -13 309 -54 431 -101 296 -354 526 -663 604 -50 13 -109 17 -223 17 -139
-1 -164 -3 -243 -27 -170 -52 -304 -134 -423 -259 -87 -91 -155 -199 -195
-309 -55 -151 -59 -191 -59 -645 l0 -414 -110 0 -110 0 0 419 c0 450 5 511 55
668 55 173 140 309 284 454 144 144 269 221 455 284 158 53 373 69 542 40z
m-789 -2025 c67 -40 63 35 63 -1170 0 -1205 4 -1130 -63 -1170 -31 -20 -61
-20 -1482 -20 -1437 0 -1450 0 -1483 20 -65 40 -62 -20 -62 1170 0 1190 -3
1130 62 1170 33 20 46 20 1483 20 1421 0 1451 0 1482 -20z"/>
<path d="M1585 2253 c-146 -52 -242 -155 -279 -298 -40 -152 -1 -289 115 -411
l59 -61 0 -239 c0 -267 5 -288 71 -351 131 -124 349 -63 398 112 6 24 11 132
11 267 l0 227 30 23 c53 42 109 127 131 200 48 157 3 328 -116 436 -87 80
-150 105 -270 109 -77 3 -111 -1 -150 -14z m239 -138 c106 -45 176 -148 176
-260 0 -110 -35 -179 -126 -246 l-54 -40 0 -262 c0 -241 -2 -265 -19 -293 -28
-46 -80 -61 -129 -37 -57 28 -62 52 -61 333 1 135 -2 252 -5 260 -4 8 -26 27
-50 43 -146 92 -168 313 -44 434 48 45 88 69 145 82 44 11 123 4 167 -14z"/>
</g>
</svg>
